<svg width="18" height="4" viewBox="0 0 18 4" fill="none" xmlns="http://www.w3.org/2000/svg">
<path d="M2.99996 2.00016C2.99996 2.36835 2.70148 2.66683 2.33329 2.66683C1.9651 2.66683 1.66663 2.36835 1.66663 2.00016C1.66663 1.63197 1.9651 1.3335 2.33329 1.3335C2.70148 1.3335 2.99996 1.63197 2.99996 2.00016Z" stroke="#1A1D1E" stroke-width="1.5"/>
<path d="M9.66663 2.00016C9.66663 2.36835 9.36815 2.66683 8.99996 2.66683C8.63177 2.66683 8.33329 2.36835 8.33329 2.00016C8.33329 1.63197 8.63177 1.3335 8.99996 1.3335C9.36815 1.3335 9.66663 1.63197 9.66663 2.00016Z" stroke="#1A1D1E" stroke-width="1.5"/>
<path d="M16.3333 2.00016C16.3333 2.36835 16.0348 2.66683 15.6666 2.66683C15.2984 2.66683 15 2.36835 15 2.00016C15 1.63197 15.2984 1.3335 15.6666 1.3335C16.0348 1.3335 16.3333 1.63197 16.3333 2.00016Z" stroke="#1A1D1E" stroke-width="1.5"/>
</svg>
