<svg width="11" height="14" viewBox="0 0 11 14" fill="none" xmlns="http://www.w3.org/2000/svg">
<path d="M10.875 6H6.5C6.10218 6 5.72064 5.84196 5.43934 5.56066C5.15804 5.27936 5 4.89782 5 4.5V0.125C5 0.0918479 4.98683 0.0600537 4.96339 0.0366117C4.93995 0.0131696 4.90815 0 4.875 0H2C1.46957 0 0.960859 0.210714 0.585786 0.585786C0.210714 0.960859 0 1.46957 0 2V12C0 12.5304 0.210714 13.0391 0.585786 13.4142C0.960859 13.7893 1.46957 14 2 14H9C9.53043 14 10.0391 13.7893 10.4142 13.4142C10.7893 13.0391 11 12.5304 11 12V6.125C11 6.09185 10.9868 6.06005 10.9634 6.03661C10.9399 6.01317 10.9082 6 10.875 6Z" fill="#6A6A6A"/>
<path d="M10.6006 4.89359L6.10656 0.399523C6.09782 0.390835 6.08671 0.384924 6.07462 0.382534C6.06253 0.380144 6.05001 0.381382 6.03862 0.38609C6.02723 0.390799 6.01749 0.39877 6.01062 0.409C6.00375 0.419229 6.00005 0.431262 6 0.443585V4.50015C6 4.63276 6.05268 4.75993 6.14645 4.8537C6.24021 4.94747 6.36739 5.00015 6.5 5.00015H10.5566C10.5689 5.0001 10.5809 4.9964 10.5911 4.98953C10.6014 4.98266 10.6093 4.97292 10.6141 4.96153C10.6188 4.95014 10.62 4.93762 10.6176 4.92553C10.6152 4.91344 10.6093 4.90232 10.6006 4.89359Z" fill="#6A6A6A"/>
</svg>
