<svg width="30" height="30" viewBox="0 0 30 30" fill="none" xmlns="http://www.w3.org/2000/svg">
<path d="M28.891 12.2256H27.7499V12.1668H14.9999V17.8335H23.0062C21.8382 21.1322 18.6995 23.5002 14.9999 23.5002C10.3058 23.5002 6.49992 19.6943 6.49992 15.0002C6.49992 10.306 10.3058 6.50016 14.9999 6.50016C17.1667 6.50016 19.138 7.31758 20.639 8.65279L24.646 4.64575C22.1158 2.2877 18.7314 0.833496 14.9999 0.833496C7.17638 0.833496 0.833252 7.17662 0.833252 15.0002C0.833252 22.8237 7.17638 29.1668 14.9999 29.1668C22.8235 29.1668 29.1666 22.8237 29.1666 15.0002C29.1666 14.0503 29.0688 13.1231 28.891 12.2256Z" fill="#FFC107"/>
<path d="M2.4668 8.40629L7.12125 11.8197C8.38067 8.70166 11.4308 6.50016 15 6.50016C17.1668 6.50016 19.1381 7.31758 20.6391 8.65279L24.6461 4.64575C22.116 2.2877 18.7315 0.833496 15 0.833496C9.55863 0.833496 4.83971 3.90554 2.4668 8.40629Z" fill="#FF3D00"/>
<path d="M15.0001 29.1667C18.6593 29.1667 21.9842 27.7663 24.4981 25.489L20.1135 21.7787C18.6912 22.8561 16.9232 23.5 15.0001 23.5C11.3153 23.5 8.1866 21.1505 7.00793 17.8716L2.38818 21.431C4.73277 26.0188 9.49418 29.1667 15.0001 29.1667Z" fill="#4CAF50"/>
<path d="M28.8911 12.2253H27.75V12.1665H15V17.8332H23.0063C22.4453 19.4177 21.426 20.7841 20.1113 21.7793C20.112 21.7786 20.1128 21.7786 20.1135 21.7779L24.498 25.4881C24.1878 25.77 29.1667 22.0832 29.1667 14.9998C29.1667 14.05 29.0689 13.1228 28.8911 12.2253Z" fill="#1976D2"/>
</svg>
