<svg width="16" height="18" viewBox="0 0 16 18" fill="none" xmlns="http://www.w3.org/2000/svg">
<path fill-rule="evenodd" clip-rule="evenodd" d="M1.53259 7.6596C1.5446 4.12578 4.41906 1.27078 7.95288 1.28275C11.4867 1.2948 14.3417 4.16926 14.3297 7.70308V7.77554C14.2862 10.0726 13.0036 12.1958 11.4311 13.8553C10.5319 14.7891 9.5276 15.6159 8.43839 16.319C8.14714 16.5709 7.71514 16.5709 7.4239 16.319C5.80015 15.2621 4.37504 13.9278 3.21375 12.377C2.17872 11.0247 1.59106 9.38329 1.53259 7.68134V7.6596Z" stroke="#6A6A6A" stroke-width="1.5" stroke-linecap="round" stroke-linejoin="round"/>
<path opacity="0.4" d="M7.93116 9.83338C9.06374 9.83338 9.98188 8.91524 9.98188 7.78266C9.98188 6.65007 9.06374 5.73193 7.93116 5.73193C6.79857 5.73193 5.88043 6.65007 5.88043 7.78266C5.88043 8.91524 6.79857 9.83338 7.93116 9.83338Z" stroke="#6A6A6A" stroke-width="1.5" stroke-linecap="round" stroke-linejoin="round"/>
</svg>
