<svg width="20" height="20" viewBox="0 0 20 20" fill="none" xmlns="http://www.w3.org/2000/svg">
<path d="M9.99992 3.99984C9.63173 3.99984 9.33325 3.70136 9.33325 3.33317C9.33325 2.96498 9.63173 2.6665 9.99992 2.6665C10.3681 2.6665 10.6666 2.96498 10.6666 3.33317C10.6666 3.70136 10.3681 3.99984 9.99992 3.99984Z" stroke="#1A1D1E" stroke-width="1.5"/>
<path d="M9.99992 10.6665C9.63173 10.6665 9.33325 10.368 9.33325 9.99984C9.33325 9.63165 9.63173 9.33317 9.99992 9.33317C10.3681 9.33317 10.6666 9.63165 10.6666 9.99984C10.6666 10.368 10.3681 10.6665 9.99992 10.6665Z" stroke="#1A1D1E" stroke-width="1.5"/>
<path d="M9.99992 17.3332C9.63173 17.3332 9.33325 17.0347 9.33325 16.6665C9.33325 16.2983 9.63173 15.9998 9.99992 15.9998C10.3681 15.9998 10.6666 16.2983 10.6666 16.6665C10.6666 17.0347 10.3681 17.3332 9.99992 17.3332Z" stroke="#1A1D1E" stroke-width="1.5"/>
</svg>
