<svg width="42" height="42" viewBox="0 0 42 42" fill="none" xmlns="http://www.w3.org/2000/svg">
<path d="M20.9999 0C9.40223 0 0 9.40196 0 20.9996C0 32.5986 9.40223 42 20.9999 42C32.598 42 42 32.5986 42 20.9996C42 9.40196 32.598 0 20.9999 0Z" fill="#1ED760"/>
<path d="M30.1691 29.8326C29.7974 30.4421 29.0038 30.633 28.3964 30.2616C23.5395 27.2931 17.4261 26.6227 10.2265 28.2672C9.53267 28.4262 8.84107 27.9915 8.68303 27.298C8.52397 26.6042 8.95719 25.9127 9.65246 25.7543C17.5313 23.9533 24.2895 24.7283 29.7413 28.0596C30.3492 28.4309 30.5406 29.225 30.1691 29.8326Z" fill="white"/>
<path d="M32.6999 24.2006C32.2322 24.9596 31.2397 25.1977 30.4817 24.7317C24.9236 21.3151 16.4475 20.3252 9.87154 22.3213C9.01894 22.5789 8.11816 22.0983 7.85907 21.2469C7.6022 20.3943 8.08309 19.4952 8.93442 19.236C16.4466 16.9563 25.7853 18.0603 32.1694 21.9837C32.9274 22.4505 33.1661 23.4433 32.6999 24.2006Z" fill="white"/>
<path d="M32.9182 18.3362C26.2511 14.3767 15.2538 14.0126 8.88925 15.9444C7.86695 16.2545 6.78614 15.6776 6.47667 14.6556C6.16694 13.6328 6.74317 12.5527 7.76594 12.2421C15.0723 10.0244 27.2176 10.4526 34.8929 15.0087C35.8125 15.5546 36.1137 16.7418 35.5689 17.6596C35.0236 18.579 33.8353 18.882 32.9182 18.3362Z" fill="white"/>
</svg>
