<svg width="18" height="20" viewBox="0 0 18 20" fill="none" xmlns="http://www.w3.org/2000/svg">
<path fill-rule="evenodd" clip-rule="evenodd" d="M16.5278 4H12.6389V3C12.6389 1.34315 11.3331 0 9.72222 0H7.77778C6.16695 0 4.86111 1.34315 4.86111 3V4H0.972222C0.435279 4 0 4.44772 0 5C0 5.55228 0.435279 6 0.972222 6H1.94444V17C1.94444 18.6569 3.25028 20 4.86111 20H12.6389C14.2497 20 15.5556 18.6569 15.5556 17V6H16.5278C17.0647 6 17.5 5.55228 17.5 5C17.5 4.44772 17.0647 4 16.5278 4ZM6.80542 3.00001C6.80542 2.44772 7.2407 2.00001 7.77764 2.00001H9.72209C10.259 2.00001 10.6943 2.44772 10.6943 3.00001V4.00001H6.80542V3.00001ZM12.6389 18C13.1758 18 13.6111 17.5523 13.6111 17V5.99998H3.88885V17C3.88885 17.5523 4.32413 18 4.86108 18H12.6389Z" fill="white"/>
</svg>
